<svg width="527" height="972" viewBox="0 0 527 972" fill="none" xmlns="http://www.w3.org/2000/svg">
<path d="M-176.952 990.393C-178.089 989.356 -178.871 987.988 -179.188 986.483C-179.485 985.095 -179.374 983.65 -178.87 982.324C-178.367 980.997 -177.491 979.843 -176.347 979.002L-58.2192 892.145C-57.2114 891.402 -56.0307 890.928 -54.7888 890.768C-53.5469 890.607 -52.2846 890.766 -51.1212 891.229C-49.962 891.694 -48.9395 892.445 -48.1494 893.412C-47.3593 894.379 -46.8273 895.531 -46.6031 896.759L-25.3526 1013.92C-25.1374 1015.11 -25.2197 1016.34 -25.5923 1017.49C-25.9649 1018.65 -26.6163 1019.69 -27.4889 1020.54C-28.3614 1021.38 -29.4282 1021.99 -30.5949 1022.32C-31.7616 1022.66 -32.9921 1022.7 -34.1777 1022.44L-173.567 992.151C-174.83 991.872 -175.997 991.266 -176.952 990.393ZM-58.9938 911.034L-154.435 981.204L-41.8314 1005.67L-58.9938 911.034Z" fill="#FDBFBC"/>
<path d="M93.0161 860.398C89.5328 857.218 86.7692 853.33 84.9105 848.995C83.0518 844.66 82.1408 839.977 82.2387 835.261C82.3102 832.093 81.7028 828.947 80.4574 826.033C79.212 823.119 77.3573 820.505 75.0181 818.368C72.6757 816.233 69.9038 814.623 66.8883 813.647C63.8727 812.671 60.6834 812.351 57.5341 812.709C52.8475 813.236 48.1024 812.756 43.6168 811.299C39.1312 809.843 35.0087 807.445 31.5255 804.265C28.0422 801.085 25.2786 797.197 23.4199 792.861C21.5612 788.526 20.6502 783.844 20.7481 779.128C20.8196 775.96 20.2122 772.813 18.9668 769.9C17.7214 766.986 15.8667 764.372 13.5275 762.235C11.1851 760.099 8.4132 758.49 5.39767 757.514C2.38215 756.538 -0.807233 756.218 -3.9565 756.576C-5.38871 756.737 -6.82626 756.322 -7.95292 755.424C-9.07958 754.525 -9.80309 753.215 -9.96432 751.783C-10.1254 750.351 -9.71091 748.913 -8.81212 747.787C-7.91334 746.66 -6.60383 745.937 -5.17163 745.775C-0.483923 745.248 4.26225 745.729 8.74907 747.185C13.2359 748.642 17.3598 751.04 20.8446 754.219C24.3283 757.399 27.0916 761.287 28.9491 765.623C30.8066 769.958 31.7154 774.641 31.6144 779.356C31.545 782.525 32.1537 785.672 33.3997 788.586C34.6457 791.5 36.5002 794.115 38.839 796.254C41.181 798.388 43.9524 799.997 46.9672 800.972C49.9821 801.947 53.1706 802.267 56.319 801.909C61.0067 801.381 65.7532 801.861 70.2402 803.317C74.7271 804.774 78.851 807.172 82.3352 810.352C85.8189 813.532 88.5822 817.42 90.4397 821.756C92.2972 826.091 93.206 830.774 93.105 835.49C93.0389 838.656 93.6504 841.801 94.8985 844.712C96.1467 847.623 98.0026 850.234 100.342 852.369C102.681 854.505 105.45 856.116 108.462 857.094C111.475 858.072 114.662 858.396 117.81 858.042C122.497 857.513 127.243 857.993 131.73 859.449C136.216 860.905 140.34 863.304 143.824 866.484C147.307 869.664 150.071 873.553 151.929 877.888C153.787 882.224 154.696 886.907 154.596 891.623C154.588 892.342 154.439 893.052 154.155 893.712C153.872 894.373 153.46 894.97 152.944 895.471C152.428 895.971 151.818 896.364 151.149 896.627C150.48 896.89 149.766 897.017 149.047 897.002C148.328 896.987 147.62 896.83 146.963 896.539C146.305 896.248 145.712 895.83 145.218 895.308C144.723 894.787 144.337 894.172 144.081 893.501C143.826 892.829 143.706 892.113 143.729 891.395C143.797 888.227 143.187 885.082 141.939 882.17C140.692 879.258 138.836 876.647 136.496 874.511C134.156 872.375 131.387 870.764 128.374 869.787C125.36 868.809 122.173 868.487 119.025 868.842C114.338 869.37 109.593 868.889 105.107 867.433C100.622 865.976 96.4993 863.578 93.0161 860.398Z" fill="#FFBE4D"/>
<path d="M72.9569 882.374C69.4735 879.193 66.7099 875.305 64.8512 870.97C62.9925 866.635 62.0816 861.953 62.1794 857.237C62.2499 854.069 61.642 850.923 60.3967 848.009C59.1513 845.095 57.2972 842.482 54.9588 840.343C52.616 838.209 49.8441 836.599 46.8286 835.623C43.8132 834.647 40.624 834.327 37.4748 834.684C32.7882 835.212 28.0431 834.731 23.5575 833.275C19.0719 831.818 14.9494 829.42 11.4662 826.24C7.98287 823.06 5.21928 819.172 3.36057 814.837C1.50186 810.502 0.590932 805.819 0.688802 801.103C0.759241 797.936 0.15139 794.789 -1.09397 791.876C-2.33934 788.962 -4.19342 786.348 -6.53182 784.21C-8.87458 782.075 -11.6466 780.466 -14.662 779.49C-17.6774 778.514 -20.8666 778.194 -24.0158 778.551C-25.448 778.712 -26.8856 778.298 -28.0122 777.399C-29.1389 776.5 -29.8624 775.191 -30.0236 773.759C-30.1847 772.326 -29.7702 770.889 -28.8714 769.762C-27.9727 768.635 -26.6632 767.912 -25.231 767.751C-20.5435 767.225 -15.7978 767.706 -11.3116 769.163C-6.82536 770.62 -2.70224 773.019 0.781631 776.198C4.26464 779.378 7.02777 783.266 8.88583 787.6C10.7439 791.935 11.654 796.617 11.5551 801.332C11.4857 804.5 12.0944 807.647 13.3404 810.562C14.5864 813.476 16.4409 816.09 18.7797 818.229C21.1217 820.363 23.8931 821.972 26.9079 822.947C29.9228 823.923 33.1113 824.242 36.2597 823.884C40.9471 823.358 45.6928 823.839 50.179 825.296C54.6653 826.753 58.7884 829.152 62.2723 832.332C65.7553 835.511 68.5184 839.399 70.3765 843.734C72.2345 848.068 73.1446 852.75 73.0457 857.465C72.9796 860.632 73.5912 863.776 74.8393 866.687C76.0874 869.598 77.9433 872.209 80.2826 874.345C82.6219 876.48 85.3906 878.091 88.4032 879.069C91.4158 880.048 94.6027 880.371 97.7503 880.017C102.437 879.491 107.183 879.972 111.669 881.428C116.154 882.885 120.277 885.284 123.761 888.464C127.244 891.643 130.007 895.531 131.866 899.866C133.724 904.201 134.635 908.883 134.536 913.598C134.529 914.317 134.379 915.027 134.096 915.688C133.813 916.348 133.401 916.946 132.885 917.446C132.369 917.946 131.759 918.339 131.09 918.602C130.421 918.865 129.706 918.993 128.988 918.978C128.269 918.962 127.561 918.805 126.903 918.514C126.246 918.223 125.653 917.805 125.158 917.284C124.664 916.762 124.278 916.148 124.022 915.476C123.767 914.804 123.647 914.088 123.67 913.37C123.736 910.203 123.125 907.059 121.876 904.148C120.628 901.237 118.772 898.626 116.433 896.49C114.094 894.355 111.325 892.744 108.313 891.766C105.3 890.787 102.113 890.464 98.9654 890.818C94.2789 891.345 89.5338 890.864 85.0482 889.408C80.5625 887.952 76.44 885.553 72.9569 882.374Z" fill="#FFBE4D"/>
<path d="M52.9061 904.337C49.4214 901.159 46.6561 897.274 44.7955 892.941C42.9348 888.608 42.0218 883.927 42.1176 879.212C42.1881 876.044 41.5802 872.898 40.3349 869.984C39.0895 867.07 37.2354 864.457 34.897 862.318C32.5543 860.184 29.7823 858.574 26.7669 857.599C23.7514 856.623 20.5623 856.302 17.413 856.66C12.7273 857.185 7.98338 856.702 3.49951 855.244C-0.984346 853.785 -5.10449 851.385 -8.58455 848.203C-12.0688 845.024 -14.8329 841.136 -16.6917 836.8C-18.5505 832.465 -19.4609 827.783 -19.362 823.067C-19.2915 819.899 -19.8994 816.752 -21.1448 813.839C-22.3901 810.925 -24.2442 808.311 -26.5826 806.173C-28.9254 804.038 -31.6973 802.429 -34.7128 801.453C-37.7282 800.477 -40.9174 800.157 -44.0666 800.514C-45.4988 800.675 -46.9364 800.261 -48.063 799.362C-49.1897 798.463 -49.9132 797.154 -50.0744 795.722C-50.2355 794.289 -49.821 792.852 -48.9222 791.725C-48.0234 790.598 -46.7139 789.875 -45.2817 789.714C-40.5943 789.188 -35.8486 789.669 -31.3624 791.126C-26.8761 792.583 -22.753 794.982 -19.2692 798.162C-15.7861 801.341 -13.023 805.229 -11.165 809.563C-9.3069 813.898 -8.39682 818.58 -8.49573 823.295C-8.56513 826.463 -7.95643 829.61 -6.71042 832.525C-5.4644 835.439 -3.60986 838.053 -1.27109 840.192C1.07093 842.326 3.84231 843.935 6.85713 844.911C9.87196 845.886 13.0605 846.205 16.2089 845.847C20.8963 845.321 25.642 845.802 30.1283 847.259C34.6145 848.716 38.7376 851.115 42.2215 854.295C45.7045 857.475 48.4676 861.362 50.3257 865.697C52.1837 870.031 53.0938 874.713 52.9949 879.428C52.9288 882.595 53.5404 885.739 54.7885 888.65C56.0366 891.562 57.8925 894.172 60.2318 896.308C62.5711 898.443 65.3398 900.054 68.3524 901.033C71.365 902.011 74.5519 902.334 77.6995 901.98C82.3865 901.454 87.1319 901.935 91.6178 903.391C96.1037 904.848 100.226 907.247 103.71 910.427C107.193 913.607 109.957 917.494 111.815 921.829C113.673 926.164 114.584 930.846 114.486 935.561C114.44 936.992 113.832 938.346 112.793 939.331C111.755 940.315 110.37 940.851 108.939 940.821C107.509 940.791 106.148 940.198 105.152 939.17C104.156 938.143 103.605 936.764 103.619 935.333C103.685 932.166 103.074 929.022 101.826 926.111C100.578 923.2 98.7216 920.589 96.3823 918.453C94.043 916.318 91.2743 914.707 88.2617 913.729C85.2491 912.75 82.0623 912.427 78.9146 912.781C74.228 913.309 69.4825 912.829 64.9967 911.373C60.5108 909.917 56.3884 907.517 52.9061 904.337Z" fill="#FFBE4D"/>
<path d="M234.156 540.051C233.019 539.014 232.237 537.646 231.92 536.14C231.623 534.752 231.733 533.308 232.237 531.981C232.741 530.654 233.617 529.501 234.76 528.659L352.888 441.803C353.896 441.066 355.074 440.597 356.313 440.441C357.551 440.284 358.809 440.444 359.968 440.907C361.127 441.372 362.15 442.123 362.94 443.09C363.73 444.057 364.262 445.208 364.486 446.437L385.755 563.575C385.966 564.764 385.881 565.988 385.508 567.137C385.135 568.286 384.486 569.326 383.616 570.166C382.744 571.01 381.677 571.626 380.51 571.958C379.342 572.291 378.111 572.329 376.925 572.071L237.535 541.782C236.277 541.51 235.112 540.913 234.156 540.051ZM352.114 460.691L256.672 530.862L369.276 555.324L352.114 460.691Z" fill="#FDBFBC"/>
<path d="M-176.952 990.393C-178.089 989.356 -178.871 987.988 -179.188 986.483C-179.485 985.095 -179.374 983.65 -178.87 982.324C-178.367 980.997 -177.491 979.843 -176.347 979.002L-58.2192 892.145C-57.2114 891.402 -56.0307 890.928 -54.7888 890.768C-53.5469 890.607 -52.2846 890.766 -51.1212 891.229C-49.962 891.694 -48.9395 892.445 -48.1494 893.412C-47.3593 894.379 -46.8273 895.531 -46.6031 896.759L-25.3526 1013.92C-25.1374 1015.11 -25.2197 1016.34 -25.5923 1017.49C-25.9649 1018.65 -26.6163 1019.69 -27.4889 1020.54C-28.3614 1021.38 -29.4282 1021.99 -30.5949 1022.32C-31.7616 1022.66 -32.9921 1022.7 -34.1777 1022.44L-173.567 992.151C-174.83 991.872 -175.997 991.266 -176.952 990.393ZM-58.9938 911.034L-154.435 981.204L-41.8314 1005.67L-58.9938 911.034Z" fill="#FDBFBC"/>
<path d="M258.51 656.517L291.563 655.012C292.201 654.985 292.827 654.832 293.405 654.561C293.983 654.291 294.502 653.908 294.93 653.435C295.362 652.965 295.695 652.415 295.911 651.815C296.128 651.216 296.223 650.579 296.191 649.942C296.132 648.655 295.564 647.445 294.613 646.576C293.662 645.708 292.404 645.253 291.118 645.311L258.103 646.815L256.599 613.8C256.54 612.513 255.973 611.302 255.021 610.434C254.07 609.565 252.813 609.11 251.526 609.169C250.889 609.195 250.264 609.347 249.686 609.617C249.109 609.887 248.591 610.269 248.162 610.741C247.73 611.211 247.396 611.762 247.179 612.363C246.962 612.963 246.867 613.6 246.898 614.238L248.384 647.273L215.369 648.776C214.731 648.803 214.105 648.956 213.527 649.227C212.949 649.498 212.431 649.88 212.002 650.353C211.57 650.823 211.237 651.375 211.02 651.975C210.803 652.575 210.707 653.212 210.738 653.85C210.766 654.487 210.921 655.112 211.192 655.689C211.463 656.266 211.846 656.784 212.318 657.213C212.788 657.644 213.339 657.977 213.938 658.195C214.538 658.413 215.174 658.51 215.811 658.481L248.826 656.977L250.329 689.992C250.358 690.629 250.512 691.254 250.784 691.831C251.055 692.409 251.437 692.926 251.91 693.355C252.379 693.786 252.93 694.12 253.529 694.338C254.129 694.556 254.766 694.653 255.403 694.623C256.04 694.596 256.666 694.442 257.244 694.172C257.822 693.901 258.341 693.519 258.77 693.047C259.202 692.576 259.536 692.025 259.753 691.425C259.97 690.825 260.065 690.187 260.034 689.55L258.51 656.517Z" fill="#FFBE4D"/>
<path d="M189.731 400.936L183.366 305.785L199.202 304.729L205.562 399.877L189.731 400.936ZM188.194 310.009L193.954 396.108L200.728 395.669L194.978 309.557L188.194 310.009Z" fill="#BDEBE6"/>
<path d="M25.7617 438.256C55.3916 436.906 78.3174 411.792 76.9678 382.162C75.6183 352.533 50.5046 329.607 20.8747 330.956C-8.75515 332.306 -31.6809 357.42 -30.3314 387.05C-28.9819 416.679 -3.86812 439.605 25.7617 438.256Z" fill="#E89C38"/>
<path d="M76.4214 394.668C77.0322 396.476 78.3357 397.968 80.0455 398.815C81.7554 399.663 83.7318 399.797 85.5405 399.188C87.3477 398.576 88.8383 397.273 89.6857 395.563C90.5331 393.854 90.6679 391.878 90.0607 390.069C89.6511 388.857 88.9245 387.777 87.9563 386.941C86.6166 386.329 85.2707 385.748 83.9031 385.199C82.8987 385.105 81.8857 385.223 80.93 385.546C79.1233 386.159 77.6338 387.464 76.7885 389.174C75.9432 390.885 75.8112 392.86 76.4214 394.668Z" fill="#FFBE4D"/>
<path d="M59.2969 408.043C61.104 407.431 62.5947 406.127 63.4421 404.418C64.2894 402.708 64.4243 400.732 63.817 398.924C63.2043 397.116 61.8997 395.626 60.1895 394.779C58.4793 393.933 56.503 393.799 54.6943 394.408C52.8862 395.019 51.3948 396.323 50.548 398.034C49.7011 399.745 49.5681 401.722 50.1781 403.53C50.7892 405.338 52.0931 406.828 53.8031 407.675C55.5131 408.521 57.4892 408.653 59.2969 408.043Z" fill="#FFBE4D"/>
<path d="M33.0488 416.893C34.857 416.282 36.3483 414.978 37.1952 413.267C38.042 411.556 38.175 409.579 37.565 407.771C37.2632 406.875 36.7879 406.048 36.1662 405.336C35.5445 404.624 34.7887 404.041 33.9419 403.622C33.095 403.202 32.1738 402.953 31.2308 402.889C30.2878 402.826 29.3415 402.948 28.4459 403.251C26.6379 403.861 25.1463 405.165 24.2987 406.875C23.4512 408.585 23.317 410.561 23.9257 412.37C24.5369 414.178 25.8409 415.671 27.5514 416.519C29.2619 417.367 31.2391 417.502 33.0488 416.893Z" fill="#FFBE4D"/>
<path d="M6.79674 425.74C7.69247 425.438 8.51986 424.962 9.23166 424.34C9.94345 423.718 10.5257 422.962 10.9451 422.115C11.3645 421.268 11.6129 420.346 11.676 419.403C11.7391 418.46 11.6157 417.513 11.3129 416.618C10.7022 414.81 9.39866 413.318 7.6888 412.47C5.97894 411.623 4.00256 411.489 2.19385 412.098C0.386706 412.71 -1.10398 414.013 -1.95134 415.723C-2.7987 417.432 -2.93357 419.408 -2.32635 421.217C-1.71515 423.025 -0.411152 424.518 1.29933 425.366C3.00982 426.214 4.987 426.349 6.79674 425.74Z" fill="#FFBE4D"/>
<path d="M64.5296 380.199C64.7489 380.129 64.9634 380.045 65.172 379.947C62.7252 379.548 60.2583 379.244 57.7714 379.034C58.7117 379.775 59.8224 380.271 61.0026 380.474C62.1828 380.678 63.3951 380.583 64.5296 380.199Z" fill="#FFBE4D"/>
<path d="M29.1497 384.526C29.7617 386.333 31.0654 387.824 32.7748 388.672C34.4843 389.519 36.46 389.654 38.2688 389.047C40.0761 388.434 41.5665 387.129 42.4131 385.419C43.2598 383.709 43.3935 381.733 42.785 379.924C42.6899 379.649 42.5788 379.381 42.4521 379.12C37.8515 379.538 33.2902 380.312 28.8088 381.434C28.6882 382.476 28.7994 383.532 29.1344 384.527L29.1497 384.526Z" fill="#FFBE4D"/>
<path d="M2.89829 393.373C3.51027 395.181 4.81395 396.671 6.52343 397.519C8.2329 398.366 10.2086 398.501 12.0174 397.894C13.8245 397.282 15.3152 395.978 16.1626 394.269C17.01 392.559 17.1448 390.583 16.5376 388.775C16.2014 387.779 15.6504 386.869 14.9236 386.109C10.6774 387.932 6.57741 390.079 2.65985 392.53C2.71741 392.816 2.79192 393.098 2.88295 393.374L2.89829 393.373Z" fill="#FFBE4D"/>
<path d="M133.29 476.598C133.745 477.945 134.589 479.128 135.715 479.998C136.841 480.867 138.199 481.384 139.618 481.484C140.308 476.723 140.613 471.914 140.529 467.105C139.61 467.05 138.689 467.174 137.818 467.471C136.921 467.772 136.092 468.248 135.379 468.87C134.666 469.492 134.083 470.248 133.662 471.096C133.242 471.944 132.993 472.866 132.929 473.81C132.865 474.754 132.988 475.701 133.29 476.598Z" fill="#FFBE4D"/>
<path d="M111.55 476.334C109.743 476.946 108.252 478.249 107.405 479.959C106.558 481.668 106.423 483.644 107.03 485.453C107.642 487.26 108.946 488.75 110.655 489.598C112.365 490.445 114.34 490.58 116.149 489.973C117.956 489.361 119.447 488.057 120.294 486.348C121.142 484.638 121.277 482.662 120.669 480.854C120.059 479.046 118.755 477.554 117.045 476.707C115.335 475.859 113.359 475.725 111.55 476.334Z" fill="#FFBE4D"/>
<path d="M85.2982 485.18C83.4911 485.792 82.0004 487.096 81.153 488.806C80.3057 490.515 80.1708 492.491 80.778 494.299C81.39 496.107 82.6937 497.597 84.4031 498.445C86.1126 499.292 88.0883 499.427 89.8971 498.82C91.7042 498.208 93.1949 496.904 94.0422 495.195C94.8896 493.485 95.0245 491.509 94.4172 489.701C93.8053 487.893 92.5016 486.403 90.7921 485.555C89.0827 484.708 87.1069 484.573 85.2982 485.18Z" fill="#FFBE4D"/>
<path d="M59.0467 494.028C57.2394 494.64 55.749 495.945 54.9023 497.655C54.0557 499.365 53.9219 501.342 54.5305 503.15C55.1412 504.958 56.4447 506.45 58.1546 507.298C59.8645 508.145 61.8409 508.279 63.6496 507.67C65.4567 507.059 66.9474 505.755 67.7948 504.045C68.6421 502.336 68.777 500.36 68.1698 498.551C67.5586 496.743 66.2546 495.25 64.5441 494.402C62.8336 493.554 60.8564 493.419 59.0467 494.028Z" fill="#FFBE4D"/>
<path d="M32.7949 502.882C31.8993 503.184 31.0718 503.659 30.3599 504.281C29.648 504.903 29.0655 505.659 28.6457 506.505C28.226 507.352 27.9772 508.273 27.9135 509.216C27.8499 510.16 27.9726 511.106 28.2748 512.001C28.8868 513.809 30.1904 515.299 31.8999 516.147C33.6093 516.994 35.5851 517.129 37.3938 516.522C39.2011 515.909 40.6915 514.604 41.5382 512.894C42.3848 511.184 42.5185 509.208 41.91 507.399C41.2984 505.592 39.9953 504.102 38.2865 503.256C36.5776 502.409 34.6027 502.275 32.7949 502.882Z" fill="#FFBE4D"/>
<path d="M6.53562 511.737C4.72847 512.349 3.23779 513.653 2.39043 515.363C1.54307 517.072 1.40821 519.048 2.01543 520.857C2.62819 522.664 3.93278 524.154 5.64301 525.001C7.35324 525.847 9.32945 525.981 11.1381 525.373C12.9453 524.761 14.436 523.457 15.2833 521.748C16.1307 520.038 16.2655 518.062 15.6583 516.254C15.0456 514.446 13.741 512.956 12.0308 512.109C10.3205 511.263 8.34431 511.129 6.53562 511.737Z" fill="#FFBE4D"/>
<path d="M116.78 448.494C114.972 449.105 113.48 450.408 112.633 452.118C111.785 453.828 111.651 455.804 112.26 457.613C112.872 459.42 114.176 460.911 115.885 461.758C117.594 462.606 119.57 462.741 121.379 462.133C123.186 461.521 124.677 460.218 125.524 458.508C126.372 456.799 126.506 454.823 125.899 453.014C125.287 451.207 123.984 449.716 122.274 448.869C120.565 448.022 118.589 447.887 116.78 448.494Z" fill="#FFBE4D"/>
<path d="M95.1318 470.992C96.939 470.38 98.4297 469.076 99.277 467.367C100.124 465.657 100.259 463.682 99.652 461.873C99.0393 460.066 97.7347 458.575 96.0244 457.728C94.3142 456.882 92.338 456.748 90.5293 457.357C88.7211 457.968 87.2298 459.273 86.3829 460.983C85.5361 462.694 85.4031 464.671 86.0131 466.479C86.6242 468.287 87.9281 469.777 89.6381 470.624C91.3481 471.47 93.3242 471.602 95.1318 470.992Z" fill="#FFBE4D"/>
<path d="M68.8823 479.842C70.6905 479.231 72.1819 477.926 73.0287 476.216C73.8755 474.505 74.0086 472.528 73.3985 470.72C73.0967 469.824 72.6214 468.997 71.9997 468.285C71.3781 467.573 70.6222 466.99 69.7754 466.57C68.9286 466.151 68.0073 465.902 67.0643 465.838C66.1213 465.775 65.175 465.897 64.2794 466.199C62.4714 466.81 60.9798 468.114 60.1322 469.824C59.2847 471.533 59.1505 473.51 59.7592 475.318C60.3704 477.127 61.6744 478.62 63.3849 479.468C65.0954 480.316 67.0726 480.451 68.8823 479.842Z" fill="#FFBE4D"/>
<path d="M42.6307 488.69C44.4389 488.078 45.9302 486.774 46.7771 485.063C47.6239 483.352 47.7569 481.375 47.1469 479.567C46.5361 477.759 45.2326 476.267 43.5228 475.42C41.8129 474.572 39.8365 474.438 38.0278 475.047C36.2207 475.659 34.73 476.962 33.8826 478.672C33.0353 480.381 32.9004 482.357 33.5076 484.166C34.1188 485.974 35.4228 487.467 37.1333 488.315C38.8438 489.163 40.821 489.298 42.6307 488.69Z" fill="#FFBE4D"/>
<path d="M11.7754 483.886C9.96824 484.498 8.47754 485.802 7.63018 487.511C6.78283 489.221 6.64797 491.196 7.25519 493.005C7.86673 494.813 9.17112 496.305 10.8817 497.151C12.5924 497.998 14.5692 498.131 16.3779 497.521C18.1859 496.91 19.6775 495.607 20.5251 493.897C21.3727 492.187 21.5068 490.211 20.8981 488.402C20.2853 486.595 18.9807 485.104 17.2705 484.258C15.5603 483.411 13.5841 483.277 11.7754 483.886Z" fill="#FFBE4D"/>
<path d="M101.08 532.017C99.2723 532.628 97.7809 533.933 96.9341 535.643C96.0873 537.354 95.9542 539.331 96.5643 541.14C97.0183 542.5 97.8715 543.691 99.0128 544.559C102.916 542.072 106.62 539.286 110.093 536.226C109.421 534.5 108.109 533.099 106.43 532.315C104.752 531.531 102.836 531.424 101.08 532.017Z" fill="#FFBE4D"/>
<path d="M83.9635 545.391C83.3507 543.584 82.0462 542.093 80.3359 541.247C78.6257 540.4 76.6495 540.266 74.8408 540.875C73.0327 541.486 71.5411 542.789 70.6936 544.499C69.846 546.209 69.7119 548.185 70.3206 549.994C70.7694 551.325 71.5975 552.496 72.7032 553.363C73.8089 554.23 75.1439 554.755 76.5439 554.873C77.4584 554.597 78.3696 554.332 79.2791 554.029C80.1885 553.726 81.0765 553.374 81.9692 553.041C83.0121 552.1 83.7567 550.874 84.111 549.514C84.4654 548.155 84.4141 546.722 83.9635 545.391Z" fill="#FFBE4D"/>
<path d="M48.5808 549.715C46.8257 550.307 45.3669 551.554 44.5085 553.195C43.6502 554.837 43.4585 556.747 43.9735 558.526C48.59 558.861 53.2255 558.836 57.8381 558.452C58.2194 557.07 58.1781 555.604 57.7196 554.245C57.4178 553.347 56.9418 552.518 56.3189 551.804C55.6961 551.09 54.9386 550.506 54.0897 550.085C53.2409 549.664 52.3174 549.415 51.3722 549.351C50.4269 549.288 49.4783 549.411 48.5808 549.715Z" fill="#FFBE4D"/>
<path d="M128.046 504.453C128.606 506.126 129.764 507.532 131.299 508.402C133.389 504.129 135.139 499.7 136.535 495.153C135.222 494.835 133.846 494.895 132.565 495.326C131.669 495.629 130.841 496.105 130.129 496.727C129.417 497.349 128.835 498.106 128.415 498.953C127.995 499.801 127.747 500.723 127.683 501.666C127.62 502.61 127.743 503.557 128.046 504.453Z" fill="#FFBE4D"/>
<path d="M106.318 504.177C104.51 504.789 103.02 506.092 102.172 507.802C101.325 509.511 101.19 511.487 101.797 513.296C102.41 515.103 103.715 516.594 105.425 517.44C107.135 518.287 109.111 518.421 110.92 517.812C112.728 517.201 114.22 515.896 115.066 514.185C115.913 512.475 116.046 510.498 115.436 508.689C114.824 506.883 113.52 505.393 111.81 504.547C110.101 503.701 108.125 503.568 106.318 504.177Z" fill="#FFBE4D"/>
<path d="M80.0654 513.024C78.2583 513.636 76.7676 514.94 75.9202 516.649C75.0728 518.359 74.938 520.335 75.5452 522.143C76.158 523.951 77.4626 525.441 79.1728 526.288C80.883 527.134 82.8592 527.268 84.6679 526.659C86.476 526.049 87.9676 524.745 88.8151 523.035C89.6627 521.325 89.7969 519.349 89.1881 517.54C88.5754 515.733 87.2708 514.243 85.5606 513.396C83.8503 512.549 81.8741 512.416 80.0654 513.024Z" fill="#FFBE4D"/>
<path d="M53.8133 521.871C52.0062 522.483 50.5155 523.787 49.6681 525.496C48.8208 527.206 48.6859 529.181 49.2932 530.99C49.9039 532.798 51.2074 534.29 52.9173 535.137C54.6271 535.985 56.6035 536.119 58.4122 535.51C60.2193 534.898 61.71 533.595 62.5574 531.885C63.4048 530.176 63.5396 528.2 62.9324 526.391C62.3204 524.584 61.0167 523.093 59.3073 522.246C57.5978 521.399 55.6221 521.264 53.8133 521.871Z" fill="#FFBE4D"/>
<path d="M27.5613 530.718C25.7541 531.331 24.2636 532.635 23.417 534.346C22.5703 536.056 22.4366 538.032 23.0451 539.841C23.6559 541.649 24.9594 543.14 26.6693 543.988C28.3791 544.836 30.3555 544.97 32.1642 544.361C33.9722 543.75 35.4639 542.447 36.3114 540.737C37.159 539.027 37.2931 537.051 36.6844 535.242C36.0732 533.433 34.7692 531.941 33.0587 531.093C31.3482 530.245 29.3711 530.11 27.5613 530.718Z" fill="#FFBE4D"/>
<path d="M1.3131 539.569C0.0327701 540.001 -1.09953 540.786 -1.9536 541.834C1.90853 544.608 5.98386 547.074 10.2344 549.207C10.9291 547.585 11.0009 545.764 10.4361 544.093C9.82615 542.283 8.52234 540.79 6.81146 539.942C5.10059 539.093 3.12279 538.959 1.3131 539.569Z" fill="#FFBE4D"/>
<path d="M117.478 429.786C118.091 431.593 119.395 433.084 121.105 433.93C122.816 434.777 124.792 434.911 126.601 434.302C127.758 433.915 128.797 433.238 129.619 432.337C130.442 431.436 131.021 430.34 131.302 429.152C129.88 426.23 128.297 423.39 126.559 420.644C125.076 420.151 123.473 420.158 121.994 420.663C120.187 421.276 118.696 422.58 117.85 424.291C117.003 426.001 116.869 427.977 117.478 429.786Z" fill="#FFBE4D"/>
<path d="M100.368 443.152C102.177 442.541 103.668 441.236 104.515 439.526C105.362 437.815 105.495 435.838 104.885 434.029C104.273 432.222 102.969 430.732 101.259 429.884C99.55 429.037 97.5743 428.902 95.7655 429.509C93.9582 430.122 92.4678 431.427 91.6212 433.137C90.7745 434.847 90.6408 436.823 91.2493 438.632C91.8601 440.44 93.1636 441.932 94.8735 442.779C96.5833 443.627 98.5597 443.761 100.368 443.152Z" fill="#FFBE4D"/>
<path d="M74.1088 452.007C75.916 451.394 77.4064 450.09 78.2531 448.379C79.0997 446.669 79.2335 444.693 78.6249 442.884C78.0142 441.076 76.7107 439.585 75.0008 438.737C73.291 437.89 71.3146 437.755 69.5059 438.364C67.6987 438.976 66.208 440.28 65.3607 441.989C64.5133 443.699 64.3784 445.674 64.9857 447.483C65.5969 449.292 66.9009 450.784 68.6113 451.632C70.3218 452.481 72.299 452.615 74.1088 452.007Z" fill="#FFBE4D"/>
<path d="M48.886 460.414C52.4166 458.577 53.7896 454.225 51.9526 450.695C50.1156 447.164 45.7643 445.791 42.2336 447.628C38.703 449.465 37.33 453.816 39.167 457.347C41.004 460.878 45.3553 462.251 48.886 460.414Z" fill="#FFBE4D"/>
<path d="M21.609 469.697C23.4161 469.085 24.9068 467.782 25.7542 466.072C26.6016 464.363 26.7364 462.387 26.1292 460.578C25.5172 458.771 24.2136 457.28 22.5041 456.433C20.7946 455.586 18.8189 455.451 17.0101 456.058C15.202 456.67 13.7106 457.974 12.8637 459.685C12.0169 461.395 11.8839 463.372 12.4939 465.181C13.1055 466.987 14.4086 468.477 16.1175 469.324C17.8263 470.171 19.8013 470.305 21.609 469.697Z" fill="#FFBE4D"/>
<path d="M-10.1425 478.178C-6.57679 479.946 -2.253 478.488 -0.485103 474.923C1.2828 471.357 -0.174653 467.033 -3.74041 465.265C-7.30616 463.497 -11.6299 464.955 -13.3978 468.521C-15.1657 472.086 -13.7083 476.41 -10.1425 478.178Z" fill="#FFBE4D"/>
<path d="M105.598 415.313C107.406 414.7 108.896 413.395 109.743 411.685C110.589 409.975 110.723 407.999 110.115 406.19C109.504 404.382 108.2 402.89 106.491 402.043C104.781 401.195 102.804 401.061 100.996 401.67C99.1885 402.282 97.6978 403.585 96.8504 405.295C96.003 407.004 95.8682 408.98 96.4754 410.789C97.0866 412.598 98.3906 414.09 100.101 414.938C101.812 415.786 103.789 415.921 105.598 415.313Z" fill="#FFBE4D"/>
<path d="M79.3456 424.16C81.1528 423.548 82.6435 422.244 83.4908 420.534C84.3382 418.825 84.473 416.849 83.8658 415.04C83.2526 413.234 81.9488 411.744 80.2397 410.897C78.5306 410.05 76.5555 409.915 74.7467 410.52C72.9387 411.131 71.4471 412.435 70.5995 414.144C69.752 415.854 69.6178 417.831 70.2265 419.639C70.8385 421.446 72.1422 422.937 73.8516 423.785C75.5611 424.632 77.5369 424.767 79.3456 424.16Z" fill="#FFBE4D"/>
<path d="M53.0937 433.007C54.9008 432.395 56.3915 431.091 57.2389 429.382C58.0862 427.672 58.2211 425.696 57.6139 423.888C57.0011 422.08 55.6965 420.59 53.9863 419.743C52.2761 418.897 50.2999 418.763 48.4912 419.372C46.6832 419.982 45.1915 421.286 44.344 422.996C43.4964 424.705 43.3623 426.682 43.971 428.491C44.5837 430.298 45.8883 431.788 47.5985 432.635C49.3088 433.482 51.285 433.615 53.0937 433.007Z" fill="#FFBE4D"/>
<path d="M26.8491 441.861C28.6562 441.249 30.1469 439.945 30.9943 438.236C31.8417 436.526 31.9765 434.551 31.3693 432.742C30.7565 430.935 29.4519 429.444 27.7417 428.598C26.0315 427.751 24.0553 427.617 22.2466 428.226C20.4418 428.838 18.9533 430.141 18.1074 431.849C17.2615 433.557 17.1271 435.53 17.7337 437.337C18.0351 438.232 18.51 439.06 19.1312 439.772C19.7525 440.484 20.5079 441.067 21.3543 441.487C22.2008 441.907 23.1217 442.156 24.0645 442.22C25.0073 442.285 25.9535 442.163 26.8491 441.861Z" fill="#FFBE4D"/>
<path d="M0.593613 450.704C2.40176 450.093 3.89313 448.788 4.73997 447.078C5.58681 445.367 5.71983 443.39 5.1098 441.582C4.49903 439.774 3.19554 438.282 1.48568 437.434C-0.224179 436.587 -2.20057 436.453 -4.00928 437.062C-5.81642 437.673 -7.30713 438.977 -8.15448 440.687C-9.00184 442.396 -9.13668 444.372 -8.52946 446.181C-7.91825 447.989 -6.61426 449.482 -4.90377 450.33C-3.19328 451.178 -1.21613 451.313 0.593613 450.704Z" fill="#FFBE4D"/>
<path d="M-28.7983 647.56C-29.5306 646.893 -30.1143 646.078 -30.5116 645.171C-30.9088 644.263 -31.1107 643.282 -31.104 642.291C-31.0763 635.481 -29.6982 628.745 -27.0495 622.471C-24.4008 616.198 -20.5341 610.512 -15.6732 605.743C-10.8385 600.947 -5.10082 597.158 1.20792 594.595C7.51666 592.031 14.2712 590.745 21.0805 590.809C34.8238 590.917 47.963 596.473 57.6152 606.257C67.2675 616.04 72.6445 629.254 72.5665 642.997C72.5584 643.925 72.3676 644.842 72.0049 645.696C71.6422 646.551 71.1148 647.325 70.4529 647.975C69.7909 648.625 69.0073 649.139 68.1468 649.486C67.2864 649.834 66.3659 650.008 65.438 650C64.51 649.992 63.5928 649.801 62.7387 649.438C61.8845 649.076 61.1102 648.548 60.4599 647.886C59.8096 647.224 59.2961 646.441 58.9487 645.58C58.6013 644.72 58.4268 643.799 58.4351 642.871C58.4764 637.923 57.538 633.016 55.674 628.433C53.8101 623.849 51.0574 619.68 47.5747 616.165C44.1052 612.628 39.9686 609.815 35.4046 607.888C30.8405 605.961 25.9396 604.959 20.9855 604.939C16.032 604.892 11.1183 605.827 6.52891 607.692C1.93946 609.556 -2.23462 612.312 -5.75177 615.801C-9.28534 619.271 -12.0964 623.408 -14.0225 627.971C-15.9487 632.534 -16.9518 637.433 -16.974 642.386C-16.9821 643.314 -17.173 644.231 -17.5356 645.085C-17.8983 645.939 -18.4257 646.714 -19.0877 647.364C-19.7497 648.014 -20.5333 648.528 -21.3937 648.875C-22.2542 649.223 -23.1747 649.397 -24.1026 649.389C-25.8402 649.381 -27.5132 648.73 -28.7983 647.56Z" fill="#BDEBE6"/>
<path d="M30.8504 142.031C31.6081 141.394 32.4921 140.923 33.4443 140.651C34.3965 140.379 35.3955 140.311 36.3757 140.452C43.1222 141.385 49.6166 143.647 55.4827 147.108C61.3488 150.568 66.4701 155.158 70.55 160.611C74.6589 166.042 77.6494 172.234 79.3483 178.829C81.0473 185.423 81.4209 192.289 80.4474 199.029C78.5105 212.636 71.2542 224.918 60.2714 233.179C49.2885 241.441 35.4764 245.008 21.8665 243.097C20.0123 242.834 18.3384 241.846 17.2128 240.349C16.0871 238.852 15.6018 236.97 15.8634 235.115C15.9932 234.197 16.3027 233.312 16.7743 232.513C17.2459 231.714 17.8703 231.016 18.6119 230.458C19.3535 229.9 20.1976 229.494 21.0962 229.262C21.9948 229.031 22.9302 228.978 23.849 229.108C28.7493 229.812 33.7405 229.538 38.5341 228.3C43.3276 227.063 47.8283 224.888 51.7759 221.901C55.7443 218.932 59.0848 215.205 61.6042 210.937C64.1237 206.669 65.772 201.944 66.454 197.035C67.1542 192.134 66.8768 187.142 65.6377 182.348C64.3986 177.554 62.2224 173.054 59.2347 169.105C56.2657 165.137 52.5395 161.796 48.2715 159.277C44.0035 156.757 39.2784 155.109 34.3694 154.427C33.4506 154.298 32.5664 153.989 31.7671 153.517C30.9678 153.046 30.2691 152.422 29.7109 151.681C29.1528 150.94 28.7461 150.096 28.5141 149.198C28.282 148.299 28.2292 147.364 28.3587 146.445C28.6146 144.716 29.5024 143.144 30.8504 142.031Z" fill="#937AB9"/>
<path d="M93.0161 860.398C89.5328 857.218 86.7692 853.33 84.9105 848.995C83.0518 844.66 82.1408 839.977 82.2387 835.261C82.3102 832.093 81.7028 828.947 80.4574 826.033C79.212 823.119 77.3573 820.505 75.0181 818.368C72.6757 816.233 69.9038 814.623 66.8883 813.647C63.8727 812.671 60.6834 812.351 57.5341 812.709C52.8475 813.236 48.1024 812.756 43.6168 811.299C39.1312 809.843 35.0087 807.445 31.5255 804.265C28.0422 801.085 25.2786 797.197 23.4199 792.861C21.5612 788.526 20.6502 783.844 20.7481 779.128C20.8196 775.96 20.2122 772.813 18.9668 769.9C17.7214 766.986 15.8667 764.372 13.5275 762.235C11.1851 760.099 8.4132 758.49 5.39767 757.514C2.38215 756.538 -0.807233 756.218 -3.9565 756.576C-5.38871 756.737 -6.82626 756.322 -7.95292 755.424C-9.07958 754.525 -9.80309 753.215 -9.96432 751.783C-10.1254 750.351 -9.71091 748.913 -8.81212 747.787C-7.91334 746.66 -6.60383 745.937 -5.17163 745.775C-0.483923 745.248 4.26225 745.729 8.74907 747.185C13.2359 748.642 17.3598 751.04 20.8446 754.219C24.3283 757.399 27.0916 761.287 28.9491 765.623C30.8066 769.958 31.7154 774.641 31.6144 779.356C31.545 782.525 32.1537 785.672 33.3997 788.586C34.6457 791.5 36.5002 794.115 38.839 796.254C41.181 798.388 43.9524 799.997 46.9672 800.972C49.9821 801.947 53.1706 802.267 56.319 801.909C61.0067 801.381 65.7532 801.861 70.2402 803.317C74.7271 804.774 78.851 807.172 82.3352 810.352C85.8189 813.532 88.5822 817.42 90.4397 821.756C92.2972 826.091 93.206 830.774 93.105 835.49C93.0389 838.656 93.6504 841.801 94.8985 844.712C96.1467 847.623 98.0026 850.234 100.342 852.369C102.681 854.505 105.45 856.116 108.462 857.094C111.475 858.072 114.662 858.396 117.81 858.042C122.497 857.513 127.243 857.993 131.73 859.449C136.216 860.905 140.34 863.304 143.824 866.484C147.307 869.664 150.071 873.553 151.929 877.888C153.787 882.224 154.696 886.907 154.596 891.623C154.588 892.342 154.439 893.052 154.155 893.712C153.872 894.373 153.46 894.97 152.944 895.471C152.428 895.971 151.818 896.364 151.149 896.627C150.48 896.89 149.766 897.017 149.047 897.002C148.328 896.987 147.62 896.83 146.963 896.539C146.305 896.248 145.712 895.83 145.218 895.308C144.723 894.787 144.337 894.172 144.081 893.501C143.826 892.829 143.706 892.113 143.729 891.395C143.797 888.227 143.187 885.082 141.939 882.17C140.692 879.258 138.836 876.647 136.496 874.511C134.156 872.375 131.387 870.764 128.374 869.787C125.36 868.809 122.173 868.487 119.025 868.842C114.338 869.37 109.593 868.889 105.107 867.433C100.622 865.976 96.4993 863.578 93.0161 860.398Z" fill="#FFBE4D"/>
<path d="M72.9569 882.374C69.4735 879.193 66.7099 875.305 64.8512 870.97C62.9925 866.635 62.0816 861.953 62.1794 857.237C62.2499 854.069 61.642 850.923 60.3967 848.009C59.1513 845.095 57.2972 842.482 54.9588 840.343C52.616 838.209 49.8441 836.599 46.8286 835.623C43.8132 834.647 40.624 834.327 37.4748 834.684C32.7882 835.212 28.0431 834.731 23.5575 833.275C19.0719 831.818 14.9494 829.42 11.4662 826.24C7.98287 823.06 5.21928 819.172 3.36057 814.837C1.50186 810.502 0.590932 805.819 0.688802 801.103C0.759241 797.936 0.15139 794.789 -1.09397 791.876C-2.33934 788.962 -4.19342 786.348 -6.53182 784.21C-8.87458 782.075 -11.6466 780.466 -14.662 779.49C-17.6774 778.514 -20.8666 778.194 -24.0158 778.551C-25.448 778.712 -26.8856 778.298 -28.0122 777.399C-29.1389 776.5 -29.8624 775.191 -30.0236 773.759C-30.1847 772.326 -29.7702 770.889 -28.8714 769.762C-27.9727 768.635 -26.6632 767.912 -25.231 767.751C-20.5435 767.225 -15.7978 767.706 -11.3116 769.163C-6.82536 770.62 -2.70224 773.019 0.781631 776.198C4.26464 779.378 7.02777 783.266 8.88583 787.6C10.7439 791.935 11.654 796.617 11.5551 801.332C11.4857 804.5 12.0944 807.647 13.3404 810.562C14.5864 813.476 16.4409 816.09 18.7797 818.229C21.1217 820.363 23.8931 821.972 26.9079 822.947C29.9228 823.923 33.1113 824.242 36.2597 823.884C40.9471 823.358 45.6928 823.839 50.179 825.296C54.6653 826.753 58.7884 829.152 62.2723 832.332C65.7553 835.511 68.5184 839.399 70.3765 843.734C72.2345 848.068 73.1446 852.75 73.0457 857.465C72.9796 860.632 73.5912 863.776 74.8393 866.687C76.0874 869.598 77.9433 872.209 80.2826 874.345C82.6219 876.48 85.3906 878.091 88.4032 879.069C91.4158 880.048 94.6027 880.371 97.7503 880.017C102.437 879.491 107.183 879.972 111.669 881.428C116.154 882.885 120.277 885.284 123.761 888.464C127.244 891.643 130.007 895.531 131.866 899.866C133.724 904.201 134.635 908.883 134.536 913.598C134.529 914.317 134.379 915.027 134.096 915.688C133.813 916.348 133.401 916.946 132.885 917.446C132.369 917.946 131.759 918.339 131.09 918.602C130.421 918.865 129.706 918.993 128.988 918.978C128.269 918.962 127.561 918.805 126.903 918.514C126.246 918.223 125.653 917.805 125.158 917.284C124.664 916.762 124.278 916.148 124.022 915.476C123.767 914.804 123.647 914.088 123.67 913.37C123.736 910.203 123.125 907.059 121.876 904.148C120.628 901.237 118.772 898.626 116.433 896.49C114.094 894.355 111.325 892.744 108.313 891.766C105.3 890.787 102.113 890.464 98.9654 890.818C94.2789 891.345 89.5338 890.864 85.0482 889.408C80.5625 887.952 76.44 885.553 72.9569 882.374Z" fill="#FFBE4D"/>
<path d="M52.9061 904.337C49.4214 901.159 46.6561 897.274 44.7955 892.941C42.9348 888.608 42.0218 883.927 42.1176 879.212C42.1881 876.044 41.5802 872.898 40.3349 869.984C39.0895 867.07 37.2354 864.457 34.897 862.318C32.5543 860.184 29.7823 858.574 26.7669 857.599C23.7514 856.623 20.5623 856.302 17.413 856.66C12.7273 857.185 7.98338 856.702 3.49951 855.244C-0.984346 853.785 -5.10449 851.385 -8.58455 848.203C-12.0688 845.024 -14.8329 841.136 -16.6917 836.8C-18.5505 832.465 -19.4609 827.783 -19.362 823.067C-19.2915 819.899 -19.8994 816.752 -21.1448 813.839C-22.3901 810.925 -24.2442 808.311 -26.5826 806.173C-28.9254 804.038 -31.6973 802.429 -34.7128 801.453C-37.7282 800.477 -40.9174 800.157 -44.0666 800.514C-45.4988 800.675 -46.9364 800.261 -48.063 799.362C-49.1897 798.463 -49.9132 797.154 -50.0744 795.722C-50.2355 794.289 -49.821 792.852 -48.9222 791.725C-48.0234 790.598 -46.7139 789.875 -45.2817 789.714C-40.5943 789.188 -35.8486 789.669 -31.3624 791.126C-26.8761 792.583 -22.753 794.982 -19.2692 798.162C-15.7861 801.341 -13.023 805.229 -11.165 809.563C-9.3069 813.898 -8.39682 818.58 -8.49573 823.295C-8.56513 826.463 -7.95643 829.61 -6.71042 832.525C-5.4644 835.439 -3.60986 838.053 -1.27109 840.192C1.07093 842.326 3.84231 843.935 6.85713 844.911C9.87196 845.886 13.0605 846.205 16.2089 845.847C20.8963 845.321 25.642 845.802 30.1283 847.259C34.6145 848.716 38.7376 851.115 42.2215 854.295C45.7045 857.475 48.4676 861.362 50.3257 865.697C52.1837 870.031 53.0938 874.713 52.9949 879.428C52.9288 882.595 53.5404 885.739 54.7885 888.65C56.0366 891.562 57.8925 894.172 60.2318 896.308C62.5711 898.443 65.3398 900.054 68.3524 901.033C71.365 902.011 74.5519 902.334 77.6995 901.98C82.3865 901.454 87.1319 901.935 91.6178 903.391C96.1037 904.848 100.226 907.247 103.71 910.427C107.193 913.607 109.957 917.494 111.815 921.829C113.673 926.164 114.584 930.846 114.486 935.561C114.44 936.992 113.832 938.346 112.793 939.331C111.755 940.315 110.37 940.851 108.939 940.821C107.509 940.791 106.148 940.198 105.152 939.17C104.156 938.143 103.605 936.764 103.619 935.333C103.685 932.166 103.074 929.022 101.826 926.111C100.578 923.2 98.7216 920.589 96.3823 918.453C94.043 916.318 91.2743 914.707 88.2617 913.729C85.2491 912.75 82.0623 912.427 78.9146 912.781C74.228 913.309 69.4825 912.829 64.9967 911.373C60.5108 909.917 56.3884 907.517 52.9061 904.337Z" fill="#FFBE4D"/>
<path d="M144.532 705.254L107.117 719.055L120.919 756.47L158.334 742.669L144.532 705.254Z" fill="#937AB9"/>
<path d="M234.156 540.051C233.019 539.014 232.237 537.646 231.92 536.14C231.623 534.752 231.733 533.308 232.237 531.981C232.741 530.654 233.617 529.501 234.76 528.659L352.888 441.803C353.896 441.066 355.074 440.597 356.313 440.441C357.551 440.284 358.809 440.444 359.968 440.907C361.127 441.372 362.15 442.123 362.94 443.09C363.73 444.057 364.262 445.208 364.486 446.437L385.755 563.575C385.966 564.764 385.881 565.988 385.508 567.137C385.135 568.286 384.486 569.326 383.616 570.166C382.744 571.01 381.677 571.626 380.51 571.958C379.342 572.291 378.111 572.329 376.925 572.071L237.535 541.782C236.277 541.51 235.112 540.913 234.156 540.051ZM352.114 460.691L256.672 530.862L369.276 555.324L352.114 460.691Z" fill="#FDBFBC"/>
<path d="M189.731 400.936L183.366 305.785L199.202 304.729L205.562 399.877L189.731 400.936ZM188.194 310.009L193.954 396.108L200.728 395.669L194.978 309.557L188.194 310.009Z" fill="#BDEBE6"/>
<path d="M30.8504 142.031C31.6081 141.394 32.4921 140.923 33.4443 140.651C34.3965 140.379 35.3955 140.311 36.3757 140.452C43.1222 141.385 49.6166 143.647 55.4827 147.108C61.3488 150.568 66.4701 155.158 70.55 160.611C74.6589 166.042 77.6494 172.234 79.3483 178.829C81.0473 185.423 81.4209 192.289 80.4474 199.029C78.5105 212.636 71.2542 224.918 60.2714 233.179C49.2885 241.441 35.4764 245.008 21.8665 243.097C20.0123 242.834 18.3384 241.846 17.2128 240.349C16.0871 238.852 15.6018 236.97 15.8634 235.115C15.9932 234.197 16.3027 233.312 16.7743 232.513C17.2459 231.714 17.8703 231.016 18.6119 230.458C19.3535 229.9 20.1976 229.494 21.0962 229.262C21.9948 229.031 22.9302 228.978 23.849 229.108C28.7493 229.812 33.7405 229.538 38.5341 228.3C43.3276 227.063 47.8283 224.888 51.7759 221.901C55.7443 218.932 59.0848 215.205 61.6042 210.937C64.1237 206.669 65.772 201.944 66.454 197.035C67.1542 192.134 66.8768 187.142 65.6377 182.348C64.3986 177.554 62.2224 173.054 59.2347 169.105C56.2657 165.137 52.5395 161.796 48.2715 159.277C44.0035 156.757 39.2784 155.109 34.3694 154.427C33.4506 154.298 32.5664 153.989 31.7671 153.517C30.9678 153.046 30.2691 152.422 29.7109 151.681C29.1528 150.94 28.7461 150.096 28.5141 149.198C28.282 148.299 28.2292 147.364 28.3587 146.445C28.6146 144.716 29.5024 143.144 30.8504 142.031Z" fill="#937AB9"/>
</svg>
